<?xml version="1.0" standalone="no"?>
<!DOCTYPE svg PUBLIC "-//W3C//DTD SVG 20010904//EN"
 "http://www.w3.org/TR/2001/REC-SVG-20010904/DTD/svg10.dtd">
<svg version="1.0" xmlns="http://www.w3.org/2000/svg"
 width="260.000000pt" height="260.000000pt" viewBox="0 0 260.000000 260.000000"
 preserveAspectRatio="xMidYMid meet">
<metadata>
Created by potrace 1.11, written by Peter Selinger 2001-2013
</metadata>
<g transform="translate(0.000000,260.000000) scale(0.100000,-0.100000)"
fill="#000000" stroke="none">
<path d="M1651 2524 c-56 -72 -178 -169 -265 -210 -87 -42 -197 -67 -276 -62
l-60 3 0 -37 0 -38 55 0 c65 0 112 -21 120 -53 7 -25 -59 -176 -330 -762 -277
-600 -350 -734 -506 -934 -116 -146 -265 -261 -341 -261 -26 0 -28 -2 -28 -44
l0 -45 53 15 c82 24 264 116 352 179 272 195 404 369 628 827 l141 288 153 51
c168 56 198 57 207 12 2 -16 31 -184 63 -376 l58 -347 267 0 268 0 0 29 c0 27
-2 29 -57 35 -123 14 -207 82 -238 190 -11 40 -84 419 -112 582 -5 30 -3 31
58 54 269 97 529 292 613 460 32 65 36 81 36 149 0 123 -45 197 -154 253 -111
58 -382 23 -603 -78 -42 -19 -78 -33 -80 -31 -2 2 14 46 36 98 39 94 39 109 1
108 -8 0 -35 -25 -59 -55z m471 -139 c75 -51 116 -164 98 -268 -40 -221 -254
-407 -602 -523 -107 -35 -337 -88 -347 -79 -2 3 74 171 169 374 l173 370 141
62 c77 34 155 68 171 75 17 7 59 13 95 14 54 0 72 -4 102 -25z"/>
<path d="M1960 2383 c-60 -21 -317 -137 -327 -146 -6 -7 -83 -166 -171 -355
l-161 -343 32 6 c18 4 39 9 47 11 8 2 80 145 160 316 l145 312 150 68 c174 78
238 96 284 80 29 -10 30 -10 21 7 -20 39 -124 64 -180 44z"/>
<path d="M1741 2488 c-13 -29 -25 -58 -28 -65 -3 -7 15 -4 45 9 39 16 52 28
61 55 15 40 14 41 -26 49 -28 6 -31 3 -52 -48z"/>
<path d="M2512 2355 c17 -38 22 -69 22 -130 0 -73 -3 -86 -39 -155 -49 -92
-175 -223 -288 -299 -81 -54 -230 -132 -328 -170 l-55 -22 53 -287 c55 -299
62 -326 97 -379 29 -45 37 -41 21 10 -13 38 -115 565 -115 593 0 7 12 15 27
19 52 13 252 113 340 170 114 74 257 218 302 305 63 119 53 269 -24 356 l-35
39 22 -50z"/>
<path d="M1080 2132 c0 -27 1 -28 60 -27 48 0 60 3 60 16 0 20 -41 39 -85 39
-32 0 -35 -3 -35 -28z"/>
<path d="M1340 1416 l-125 -42 -150 -300 c-157 -313 -201 -388 -304 -516 -167
-208 -434 -402 -648 -472 -50 -17 -53 -19 -53 -52 0 -19 4 -34 8 -34 21 0 144
45 219 80 151 71 305 183 434 317 157 164 235 285 409 639 l138 281 133 43
c74 23 135 43 137 45 2 1 0 14 -4 29 -9 37 -42 34 -194 -18z"/>
<path d="M2230 733 l0 -28 -266 4 c-248 3 -267 2 -260 -14 3 -9 6 -23 6 -31 0
-12 46 -14 290 -14 l290 0 0 55 c0 54 0 55 -30 55 -26 0 -30 -4 -30 -27z"/>
</g>
</svg>
